<svg width="24" height="24" viewBox="0 0 24 24" fill="none" xmlns="http://www.w3.org/2000/svg">
<path d="M9.31475 0.882965C9.63778 0.571286 10.0277 0.331744 10.4571 0.181221C10.8865 0.0306971 11.3449 -0.0271443 11.8 0.0117731C12.2551 0.0506904 12.6958 0.185419 13.0911 0.406464C13.4864 0.627509 13.8265 0.929491 14.0877 1.29113L14.5197 1.88959L6.70913 9.4242L6.23514 9.15037C5.82804 8.91471 5.48197 8.59265 5.22322 8.20866C4.96447 7.82466 4.79984 7.38883 4.74184 6.93427C4.68385 6.47971 4.734 6.01837 4.8885 5.58531C5.04301 5.15224 5.29779 4.75884 5.6335 4.43499L9.31475 0.882965ZM8.28732 10.3378L11.2125 12.0307C11.3375 12.1039 11.4428 12.2047 11.5187 12.3261L13.1058 14.8784L20.1844 8.05074L17.7279 6.25622C17.6532 6.20183 17.5878 6.13645 17.5342 6.06247L15.557 3.32504L8.28732 10.3378ZM14.5501 17.1999L14.0529 16.4008L21.6207 9.10042L22.7633 9.93569C23.1252 10.2004 23.423 10.5381 23.6359 10.9253C23.8487 11.3124 23.9715 11.7396 23.9956 12.1772C24.0197 12.6148 23.9446 13.0522 23.7756 13.4589C23.6066 13.8657 23.3476 14.2319 23.0168 14.5322L19.3703 17.844C19.0304 18.1526 18.6231 18.3838 18.1784 18.5207C17.7337 18.6575 17.2628 18.6964 16.8004 18.6347C16.3381 18.5729 15.8959 18.4119 15.5065 18.1636C15.117 17.9154 14.7902 17.586 14.5501 17.1999ZM8.34802 12.3812L0.620438 19.7005C0.225787 20.0777 0.00261762 20.5907 2.28801e-05 21.1266C-0.00257186 21.6624 0.215621 22.1774 0.606602 22.5581C0.997583 22.9388 1.52932 23.1541 2.08485 23.1566C2.64037 23.1591 3.17418 22.9486 3.56883 22.5714L11.2188 15.1918L10.103 13.3964L8.34802 12.3812ZM14.2859 20.5556C14.0491 20.5556 13.8221 20.6463 13.6547 20.8078C13.4873 20.9693 13.3932 21.1883 13.3932 21.4167C13.3932 21.6451 13.4873 21.8641 13.6547 22.0256C13.8221 22.1871 14.0491 22.2778 14.2859 22.2778H12.5006C12.2638 22.2778 12.0368 22.3685 11.8694 22.53C11.702 22.6915 11.6079 22.9105 11.6079 23.1389C11.6079 23.3673 11.702 23.5863 11.8694 23.7478C12.0368 23.9093 12.2638 24 12.5006 24H22.6169C22.8536 24 23.0807 23.9093 23.2481 23.7478C23.4155 23.5863 23.5095 23.3673 23.5095 23.1389C23.5095 22.9105 23.4155 22.6915 23.2481 22.53C23.0807 22.3685 22.8536 22.2778 22.6169 22.2778H20.5343C20.7711 22.2778 20.9981 22.1871 21.1655 22.0256C21.3329 21.8641 21.427 21.6451 21.427 21.4167C21.427 21.1883 21.3329 20.9693 21.1655 20.8078C20.9981 20.6463 20.7711 20.5556 20.5343 20.5556H14.2859Z" fill="white"/>
</svg>
